# xmcd CD database file
#
# Track frame offsets:
#	150
#	39733
#	64254
#	96121
#	126921
#	152429
#	178980
#	211590
#	235096
#	256732
#
# Disc length: 3785 seconds
#
# Revision: 0
# Processed by: cddbd v1.5.2PL0 Copyright (c) Steve Scherf et al.
# Submitted via: CDex 1.51
#
DISCID=810ec70a
DTITLE=Marc Cary Focus Trio - Four Directions
DYEAR=2013
DGENRE=Jazz
TTITLE0=Todi Blues
TTITLE1=Waltz Betty Waltz
TTITLE2=He Who Hops Around
TTITLE3=Open Baby
TTITLE4=Tanktified
TTITLE5=Boom
TTITLE6=Ready Or Not
TTITLE7=Spectrum
TTITLE8=Indigenous
TTITLE9=Outside My Window
EXTD=YEAR: 2013
EXTT0=
EXTT1=
EXTT2=
EXTT3=
EXTT4=
EXTT5=
EXTT6=
EXTT7=
EXTT8=
EXTT9=
PLAYORDER=
